# xmcd
#
# Track frame offsets:
#	150
#	15312
#	30007
#	47344
#	69793
#	105546
#	123251
#	142310
#	160127
#	176868
#
# Disc length: 2552 seconds
#
# Revision: 0
# Processed by: cddbd v1.5.2PL0 Copyright (c) Steve Scherf et al.
# Submitted via: audiograbber 1.83.01
#
DISCID=7209f60a
DTITLE=Various Artist - Awesome 80's, Volume 5
DYEAR=1999
DGENRE=Pop
TTITLE0=Timbuk 3 - The Future's So Bright, I Gotta Wear Shades
TTITLE1=Stray Cats - Stray Cat Strut
TTITLE2=Eddy Grant - Electric Avenue
TTITLE3=Billy Idol - Eyes Without a Face
TTITLE4=Golden Earring - Twilight Zone
TTITLE5=The J. Geils Band - Freeze Frame
TTITLE6=Dan Hartman - I Can Dream About You
TTITLE7=The Tubes - She's a Beauty
TTITLE8=Kajagoogoo - Too Shy
TTITLE9=The Motels - Only the Lonely
EXTD=
EXTT0=
EXTT1=
EXTT2=
EXTT3=
EXTT4=
EXTT5=
EXTT6=
EXTT7=
EXTT8=
EXTT9=
PLAYORDER=
